<svg xmlns="http://www.w3.org/2000/svg" width="30.468" height="25.575" viewBox="0 0 30.468 25.575">
  <g id="Group_809" data-name="Group 809" transform="translate(-2.5 -9.989)">
    <path id="Path_644" data-name="Path 644" d="M31.24,19.178H28.68l-4.161-8.321a1.546,1.546,0,0,0-2.752,1.408l3.488,6.945H10.149l3.488-6.977a1.546,1.546,0,1,0-2.752-1.408L6.725,19.146H4.164A1.653,1.653,0,0,0,2.5,20.81V21.8a1.653,1.653,0,0,0,1.664,1.664h.384L6.757,34.252a1.65,1.65,0,0,0,1.632,1.312H27.079a1.65,1.65,0,0,0,1.632-1.312L30.92,23.466H31.3A1.653,1.653,0,0,0,32.968,21.8V20.81A1.747,1.747,0,0,0,31.24,19.178ZM13.061,31.564a1.066,1.066,0,0,1-1.056,1.056h-.544a1.066,1.066,0,0,1-1.056-1.056V23.691a1.066,1.066,0,0,1,1.056-1.056h.544a1.066,1.066,0,0,1,1.056,1.056Zm5.985,0A1.066,1.066,0,0,1,17.99,32.62h-.544a1.066,1.066,0,0,1-1.056-1.056V23.691a1.066,1.066,0,0,1,1.056-1.056h.544a1.066,1.066,0,0,1,1.056,1.056Zm5.985,0a1.066,1.066,0,0,1-1.056,1.056h-.544a1.066,1.066,0,0,1-1.056-1.056V23.691a1.066,1.066,0,0,1,1.056-1.056h.544a1.066,1.066,0,0,1,1.056,1.056Z" fill="#1f2446"/>
  </g>
</svg>
