<svg xmlns="http://www.w3.org/2000/svg" width="10.166" height="18.824" viewBox="0 0 10.166 18.824">
  <path id="facebook" d="M9.8,0H7.356A4.289,4.289,0,0,0,2.843,4.636V6.773H.382A.383.383,0,0,0,0,7.155v3.1a.379.379,0,0,0,.382.382H2.836v7.809a.379.379,0,0,0,.382.382H6.423a.386.386,0,0,0,.376-.382V10.632H9.674a.383.383,0,0,0,.382-.382v-3.1a.383.383,0,0,0-.382-.382H6.8V4.96c0-.861.214-1.314,1.34-1.314H9.784a.379.379,0,0,0,.382-.382V.389A.377.377,0,0,0,9.8,0Z" transform="translate(0)" fill="#fff"/>
</svg>
