<svg id="instagram" xmlns="http://www.w3.org/2000/svg" width="19" height="19" viewBox="0 0 19 19">
  <path id="Path_664" data-name="Path 664" d="M13.063,0H5.938A5.936,5.936,0,0,0,0,5.938v7.125A5.936,5.936,0,0,0,5.938,19h7.125A5.936,5.936,0,0,0,19,13.063V5.938A5.936,5.936,0,0,0,13.063,0Zm4.156,13.063a4.164,4.164,0,0,1-4.156,4.156H5.938a4.164,4.164,0,0,1-4.156-4.156V5.938A4.164,4.164,0,0,1,5.938,1.781h7.125a4.164,4.164,0,0,1,4.156,4.156Z" fill="#fff"/>
  <path id="Path_665" data-name="Path 665" d="M132.75,128a4.75,4.75,0,1,0,4.75,4.75A4.75,4.75,0,0,0,132.75,128Zm0,7.719a2.969,2.969,0,1,1,2.969-2.969A2.968,2.968,0,0,1,132.75,135.719Z" transform="translate(-123.25 -123.25)" fill="#fff"/>
  <circle id="Ellipse_21" data-name="Ellipse 21" cx="0.635" cy="0.635" r="0.635" transform="translate(13.972 3.759)" fill="#fff"/>
</svg>
