<svg xmlns="http://www.w3.org/2000/svg" width="19.037" height="19" viewBox="0 0 19.037 19">
  <path id="linkedin" d="M4.529,6.106H.7a.3.3,0,0,0-.307.307v12.28A.3.3,0,0,0,.7,19H4.523a.3.3,0,0,0,.307-.307V6.413A.3.3,0,0,0,4.529,6.106ZM2.619,0A2.519,2.519,0,1,0,5.137,2.519,2.522,2.522,0,0,0,2.619,0ZM14.247,5.8a4.5,4.5,0,0,0-3.36,1.413v-.8a.3.3,0,0,0-.307-.307H6.919a.3.3,0,0,0-.307.307v12.28A.3.3,0,0,0,6.919,19h3.815a.3.3,0,0,0,.307-.307V12.618c0-2.046.559-2.844,1.984-2.844,1.554,0,1.677,1.278,1.677,2.949v5.971a.3.3,0,0,0,.307.307H18.83a.3.3,0,0,0,.307-.307V11.96C19.137,8.913,18.553,5.8,14.247,5.8Z" transform="translate(-0.1)" fill="#fff"/>
</svg>
