<svg xmlns="http://www.w3.org/2000/svg" width="287.108" height="51.535" viewBox="0 0 287.108 51.535">
  <g id="logo" transform="translate(0.047 0.045)">
    <g id="Group_1361" data-name="Group 1361">
      <path id="Path_721" data-name="Path 721" d="M54.11,55.81a37.56,37.56,0,0,1-5.58.45q-5.745,0-8.5-2a8.67,8.67,0,0,1-3.44-5.63h-.22c-1.21,3-2.86,5-5,6.08s-5.15,1.58-9.13,1.58a28.56,28.56,0,0,1-5.52-.56,19.59,19.59,0,0,1-5.18-1.8,10.25,10.25,0,0,1-3.83-3.44,9.42,9.42,0,0,1-1.47-5.35,10.57,10.57,0,0,1,1.3-5.47A12.21,12.21,0,0,1,11,35.93a18.79,18.79,0,0,1,4.73-2.48q2.66-1,5.47-1.86,4.61-1.35,7.49-2.31a18.79,18.79,0,0,0,4.45-2,6.09,6.09,0,0,0,2.2-2.42,8.51,8.51,0,0,0,.62-3.5v-6.9a10.6,10.6,0,0,0-1.47-5.52Q33,6.47,28.93,6.46a8.41,8.41,0,0,0-4.51,1.19c-1.28.78-1.91,2.23-1.91,4.33a9.39,9.39,0,0,0,.11,1.19c.07.56.15,1.18.23,1.86s.15,1.31.22,1.91.11,1,.11,1.24a4,4,0,0,1-.79,2.65,4.75,4.75,0,0,1-1.85,1.41,6.46,6.46,0,0,1-2.26.5c-.79,0-1.44.06-2,.06A16.771,16.771,0,0,1,14,22.63a4.68,4.68,0,0,1-2.08-.79A4.82,4.82,0,0,1,10.4,20.1a6.27,6.27,0,0,1-.62-3.05,8.85,8.85,0,0,1,1.63-5.24A13.16,13.16,0,0,1,15.75,8a23.16,23.16,0,0,1,6.14-2.31A32.17,32.17,0,0,1,29,4.89a45.8,45.8,0,0,1,8.06.67A17.47,17.47,0,0,1,43.63,8a13,13,0,0,1,4.4,4.9,16.71,16.71,0,0,1,1.63,7.83V48.71a10.7,10.7,0,0,0,.62,3.78c.41,1.09,1.45,1.63,3.1,1.63a4.79,4.79,0,0,0,2.42-.56A7.83,7.83,0,0,0,57.66,52l1,1a6.35,6.35,0,0,1-4.55,2.81ZM35.69,26.86a3.25,3.25,0,0,1-.85,1.29,8.69,8.69,0,0,1-2.19,1.41c-1.43.68-2.86,1.33-4.28,2A15.47,15.47,0,0,0,24.54,34a11.45,11.45,0,0,0-2.76,3.61,12.27,12.27,0,0,0-1.08,5.52c0,.9.06,2,.17,3.15a11.6,11.6,0,0,0,.91,3.5A7.48,7.48,0,0,0,24,52.6a6.29,6.29,0,0,0,4,1.18,6.59,6.59,0,0,0,2.87-.67A7.4,7.4,0,0,0,33.44,51a10.67,10.67,0,0,0,1.8-3.72,20,20,0,0,0,.68-5.57V26.86Z" transform="translate(-6.28 -4.8)" fill="#202020"/>
      <path id="Path_722" data-name="Path 722" d="M49.56,6.38V4.8H78.18V6.38H70.85L82.46,35.67l8.9-24L89.11,6.38H83.36V4.8h28.17V6.38H104l11.6,29.29L126.4,6.38h-7.89V4.8h15.21V6.38H128.2l-18.48,49.8h-.78L92.26,14,76.6,56.18h-.79L56.21,6.38Z" transform="translate(-6.28 -4.8)" fill="#202020"/>
      <path id="Path_723" data-name="Path 723" d="M181.18,56.22h-6.11q-5.745,0-8.51-2a8.66,8.66,0,0,1-3.43-5.63h-.23c-1.2,3-2.85,5-5,6.08s-5.14,1.58-9.12,1.58a28.48,28.48,0,0,1-5.52-.56,19.46,19.46,0,0,1-5.18-1.8,10.35,10.35,0,0,1-3.84-3.44,9.49,9.49,0,0,1-1.46-5.35,10.57,10.57,0,0,1,1.3-5.47,12.09,12.09,0,0,1,3.38-3.71,18.45,18.45,0,0,1,4.73-2.48q2.64-1,5.46-1.86,4.62-1.35,7.49-2.31a18.6,18.6,0,0,0,4.45-2,5.94,5.94,0,0,0,2.2-2.42,8.51,8.51,0,0,0,.62-3.5V14.46A10.69,10.69,0,0,0,161,8.94q-1.47-2.47-5.52-2.48A8.41,8.41,0,0,0,151,7.65c-1.32.78-2,2.23-2,4.35a10,10,0,0,0,.12,1.19c.07.56.15,1.18.22,1.86s.15,1.31.23,1.91a10.275,10.275,0,0,1,.11,1.24,4,4,0,0,1-.79,2.65,4.78,4.78,0,0,1-1.86,1.41,6.36,6.36,0,0,1-2.25.5c-.79,0-1.45.06-2,.06a16.77,16.77,0,0,1-2.31-.17,4.72,4.72,0,0,1-2.09-.79,4.91,4.91,0,0,1-1.52-1.74,6.39,6.39,0,0,1-.62-3.05A8.86,8.86,0,0,1,138,11.81,13.12,13.12,0,0,1,142.28,8a23.29,23.29,0,0,1,6.14-2.31,32.26,32.26,0,0,1,7.16-.78,45.69,45.69,0,0,1,8,.67A17.45,17.45,0,0,1,170.17,8a13,13,0,0,1,4.39,4.9,16.7,16.7,0,0,1,1.64,7.83V48.71a10.48,10.48,0,0,0,.62,3.78,3.08,3.08,0,0,0,3.09,1.94h4.5s1.19,0,2.7.1l.37,1.64Zm-19-29.36a3.48,3.48,0,0,1-.85,1.29,8.6,8.6,0,0,1-2.2,1.41c-1.42.68-2.85,1.33-4.28,2A15.66,15.66,0,0,0,151.07,34a11.6,11.6,0,0,0-2.76,3.61,12.42,12.42,0,0,0-1.07,5.52c0,.9.06,2,.17,3.15a11.29,11.29,0,0,0,.9,3.5,7.5,7.5,0,0,0,2.2,2.87,6.26,6.26,0,0,0,4.05,1.18,6.6,6.6,0,0,0,2.88-.67A7.28,7.28,0,0,0,160,51a10.85,10.85,0,0,0,1.81-3.72,20,20,0,0,0,.67-5.57V26.86Z" transform="translate(-6.28 -4.8)" fill="#202020"/>
      <path id="Path_724" data-name="Path 724" d="M208.83,5.86v9.86h.23A24.181,24.181,0,0,1,214.76,8a13.56,13.56,0,0,1,9.45-3.23,11.75,11.75,0,0,1,8,2.64,9.18,9.18,0,0,1,3.05,7.34,8.21,8.21,0,0,1-1.7,5.52q-1.69,2-5.46,2a10.92,10.92,0,0,1-4.93-1.11c-1.49-.75-2.23-2.13-2.23-4.17a10.642,10.642,0,0,1,.12-1.23c.08-.59.17-1.22.29-1.88s.22-1.27.3-1.82.11-.86.11-.94a5.279,5.279,0,0,0-.35-1.47,2.57,2.57,0,0,0-.76-.94A2.58,2.58,0,0,0,219,8.32a5.82,5.82,0,0,0-2.93,1.12,12.08,12.08,0,0,0-3.29,3.23,21.38,21.38,0,0,0-2.64,5.1,19.11,19.11,0,0,0-1.12,6.75V54.58h2.15v1.64h-24.1V54.58h7.63V7.5h-2.88V5.86Z" transform="translate(-6.28 -4.8)" fill="#202020"/>
      <path id="Path_725" data-name="Path 725" d="M250.76,31.59c0,2.7.11,5.43.34,8.17a22.7,22.7,0,0,0,1.8,7.43,13.59,13.59,0,0,0,4.28,5.47c1.88,1.42,4.51,2.14,7.89,2.14a15.78,15.78,0,0,0,7.6-1.69,18.88,18.88,0,0,0,5.07-3.89,17,17,0,0,0,2.93-4.34,11.921,11.921,0,0,0,1.07-3.15l1.58.56a20,20,0,0,1-1.92,4.56,17.24,17.24,0,0,1-3.71,4.51,20.14,20.14,0,0,1-5.86,3.49,22.6,22.6,0,0,1-8.45,1.41,33.44,33.44,0,0,1-10.93-1.74,26.32,26.32,0,0,1-8.85-5.07,23.33,23.33,0,0,1-5.91-8.12,26.3,26.3,0,0,1-2.14-10.87,23.18,23.18,0,0,1,2-9.46,26.51,26.51,0,0,1,5.57-8.17,28.58,28.58,0,0,1,8.34-5.75A24.49,24.49,0,0,1,261.8,4.89a26.38,26.38,0,0,1,7.89,1.23A21.05,21.05,0,0,1,276.78,10a19.87,19.87,0,0,1,5.19,6.7,22.12,22.12,0,0,1,2,9.86H250.76Zm18-14.2c0-.82,0-1.84-.11-3a12.4,12.4,0,0,0-.79-3.61,7.1,7.1,0,0,0-2.19-3,6.58,6.58,0,0,0-4.23-1.24,8.71,8.71,0,0,0-5.91,1.81,10.79,10.79,0,0,0-3.1,4.56,23,23,0,0,0-1.3,6q-.28,3.21-.39,6.14h18Z" transform="translate(-6.28 -4.8)" fill="#202020"/>
    </g>
    <path id="Path_726" data-name="Path 726" d="M285.89,51.94A3.7,3.7,0,0,1,289.64,48a3.65,3.65,0,0,1,3.69,3.94,3.73,3.73,0,1,1-7.44,0Z" transform="translate(-6.28 -4.8)" fill="#231f20"/>
  </g>
</svg>
