<svg id="maestro" xmlns="http://www.w3.org/2000/svg" width="38.052" height="28.586" viewBox="0 0 38.052 28.586">
  <g id="Group_73" data-name="Group 73">
    <path id="Path_66" data-name="Path 66" d="M2.64,28.611A2.132,2.132,0,0,1,.5,26.47V2.64A2.132,2.132,0,0,1,2.64.5h33.3a2.132,2.132,0,0,1,2.14,2.14V26.47a2.132,2.132,0,0,1-2.14,2.14Z" transform="translate(-0.262 -0.262)" fill="#fff"/>
    <path id="Path_67" data-name="Path 67" d="M35.674.476a1.908,1.908,0,0,1,1.9,1.9v23.83a1.908,1.908,0,0,1-1.9,1.9H2.378a1.908,1.908,0,0,1-1.9-1.9V2.378a1.908,1.908,0,0,1,1.9-1.9h33.3m0-.476H2.378A2.355,2.355,0,0,0,0,2.378v23.83a2.355,2.355,0,0,0,2.378,2.378h33.3a2.355,2.355,0,0,0,2.378-2.378V2.378A2.355,2.355,0,0,0,35.674,0Z" fill="#fff"/>
  </g>
  <g id="Group_74" data-name="Group 74" transform="translate(6.124 4.284)">
    <path id="Path_68" data-name="Path 68" d="M25.525,47.959V46.627a.8.8,0,0,0-.856-.856.865.865,0,0,0-.761.381.782.782,0,0,0-.713-.381.693.693,0,0,0-.618.333v-.238H22.1v2.14h.476V46.817c0-.381.19-.571.523-.571.285,0,.476.19.476.571v1.189h.476V46.817a.513.513,0,0,1,.523-.571c.333,0,.476.19.476.571v1.189l.476-.048Zm2.569-1.046V45.866h-.476V46.1a.832.832,0,0,0-.666-.333,1.067,1.067,0,0,0-1.046,1.094,1.038,1.038,0,0,0,1.046,1.094.832.832,0,0,0,.666-.333v.238h.476Zm-1.712,0a.624.624,0,0,1,.666-.666.668.668,0,0,1,0,1.332.624.624,0,0,1-.666-.666Zm11.558-1.094a1.69,1.69,0,0,1,.476.1,1.668,1.668,0,0,1,.381.238,1.445,1.445,0,0,1,.238.333,1.467,1.467,0,0,1,0,.9.853.853,0,0,1-.238.333,1.036,1.036,0,0,1-.381.238,1.467,1.467,0,0,1-.9,0,1.669,1.669,0,0,1-.381-.238,1.445,1.445,0,0,1-.238-.333,1.467,1.467,0,0,1,0-.9.853.853,0,0,1,.238-.333,1.036,1.036,0,0,1,.381-.238A.707.707,0,0,1,37.939,45.818Zm0,.428a.6.6,0,0,0-.285.048.656.656,0,0,0-.19.143,1.04,1.04,0,0,0-.143.238,1.16,1.16,0,0,0,0,.571c.048.1.1.143.143.238.048.048.143.1.19.143a.973.973,0,0,0,.523,0,.657.657,0,0,0,.19-.143,1.039,1.039,0,0,0,.143-.238,1.159,1.159,0,0,0,0-.571c-.048-.1-.1-.143-.143-.238-.048-.048-.143-.1-.19-.143a.356.356,0,0,0-.238-.048Zm-7.325.666a1,1,0,0,0-1-1.094,1.038,1.038,0,0,0-1.046,1.094,1.049,1.049,0,0,0,1.094,1.094,1.328,1.328,0,0,0,.856-.285l-.238-.333a1,1,0,0,1-.618.238.574.574,0,0,1-.618-.523h1.57Zm-1.57-.19a.571.571,0,0,1,.571-.523c.285,0,.476.19.523.523Zm3.52-.333a1.548,1.548,0,0,0-.666-.19c-.238,0-.381.1-.381.238s.143.19.381.19l.238.048c.476.048.761.238.761.618s-.333.713-.951.713a1.464,1.464,0,0,1-.9-.285l.238-.381a1.168,1.168,0,0,0,.713.238c.333,0,.476-.1.476-.238s-.143-.19-.381-.238h-.333c-.476-.048-.713-.285-.713-.618,0-.428.333-.666.9-.666a1.521,1.521,0,0,1,.856.238Zm2.188-.1h-.761v.951c0,.238.1.333.285.333a.767.767,0,0,0,.428-.143l.143.381a1.266,1.266,0,0,1-.571.143c-.523,0-.713-.285-.713-.761v-.951h-.428v-.428h.428V45.2h.476v.666H34.8l-.048.428Zm1.617-.476a.809.809,0,0,1,.333.048l-.143.428a.6.6,0,0,0-.285-.048.464.464,0,0,0-.476.523v1.189h-.476v-2.14H35.8v.238a.594.594,0,0,1,.571-.238Z" transform="translate(-17.712 -27.985)" fill="#282828"/>
    <path id="Path_69" data-name="Path 69" d="M32.7,12.6h6.992V25.157H32.7Z" transform="translate(-23.27 -10.891)" fill="#7673c0"/>
    <path id="Path_70" data-name="Path 70" d="M22.733,17a8.029,8.029,0,0,1,3.044-6.279,7.986,7.986,0,1,0,0,12.557A7.955,7.955,0,0,1,22.733,17Z" transform="translate(-12.875 -9.015)" fill="#eb001b"/>
    <path id="Path_71" data-name="Path 71" d="M52.938,16.995A8,8,0,0,1,40,23.273a7.962,7.962,0,0,0,1.332-11.225A8.815,8.815,0,0,0,40,10.716a8,8,0,0,1,12.938,6.279Z" transform="translate(-27.098 -9.007)" fill="#00a1df"/>
  </g>
</svg>
