<svg id="mastercard" xmlns="http://www.w3.org/2000/svg" width="38.121" height="28.591" viewBox="0 0 38.121 28.591">
  <g id="Group_75" data-name="Group 75">
    <path id="Path_72" data-name="Path 72" d="M2.644,28.614A2.135,2.135,0,0,1,.5,26.47V2.644A2.135,2.135,0,0,1,2.644.5H36a2.135,2.135,0,0,1,2.144,2.144V26.47A2.135,2.135,0,0,1,36,28.614Z" transform="translate(-0.262 -0.262)" fill="#fff"/>
    <path id="Path_73" data-name="Path 73" d="M35.739.477a1.912,1.912,0,0,1,1.906,1.906V26.208a1.912,1.912,0,0,1-1.906,1.906H2.383A1.912,1.912,0,0,1,.477,26.208V2.383A1.912,1.912,0,0,1,2.383.477H35.739m0-.477H2.383A2.359,2.359,0,0,0,0,2.383V26.208a2.359,2.359,0,0,0,2.383,2.383H35.739a2.359,2.359,0,0,0,2.383-2.383V2.383A2.359,2.359,0,0,0,35.739,0Z" fill="#fff"/>
  </g>
  <path id="Path_74" data-name="Path 74" d="M18.936,47.654V46.32a.789.789,0,0,0-.81-.858.867.867,0,0,0-.762.381.784.784,0,0,0-.715-.381.694.694,0,0,0-.619.334V45.51H15.6v2.144h.429V46.415a.514.514,0,0,1,.524-.572c.286,0,.477.191.477.572v1.239h.429V46.415a.514.514,0,0,1,.524-.572c.286,0,.477.191.477.572v1.239Zm6.91-2.1h-.762v-.619h-.429v.619h-.429v.381h.429v1c0,.477.191.762.715.762a1.269,1.269,0,0,0,.572-.143l-.143-.381a.573.573,0,0,1-.381.1.3.3,0,0,1-.334-.334v-1h.762v-.381Zm3.955-.1a.622.622,0,0,0-.572.334V45.51H28.8v2.144h.429V46.463c0-.334.191-.572.477-.572a.6.6,0,0,1,.286.048l.143-.381a.883.883,0,0,0-.334-.1Zm-5.956.238a1.646,1.646,0,0,0-.858-.238c-.524,0-.858.238-.858.667,0,.334.238.572.715.619h.238c.238.048.381.143.381.238,0,.143-.191.286-.524.286a1.284,1.284,0,0,1-.715-.238l-.238.334a1.527,1.527,0,0,0,.905.286c.619,0,.953-.286.953-.667s-.286-.572-.715-.619h-.191c-.191,0-.381-.1-.381-.238s.191-.286.429-.286a1.233,1.233,0,0,1,.667.191l.191-.334Zm6.433.905a1.155,1.155,0,0,0,1.858.858L31.9,47.13a.76.76,0,0,1-.572.191.716.716,0,0,1,0-1.43,1.355,1.355,0,0,1,.572.191l.238-.334a1.05,1.05,0,0,0-.762-.238,1,1,0,0,0-1.1,1.1Zm-2.954-1.144a1.014,1.014,0,0,0-1.048,1.1,1.026,1.026,0,0,0,1.1,1.1,1.33,1.33,0,0,0,.858-.286l-.238-.334a1,1,0,0,1-.619.238.588.588,0,0,1-.619-.572h1.573v-.191a1.018,1.018,0,0,0-1-1.048Zm-.048.429a.539.539,0,0,1,.572.524H26.7A.539.539,0,0,1,27.275,45.891Zm-5.718.715V45.558h-.429V45.8a.834.834,0,0,0-.667-.334,1.1,1.1,0,0,0,0,2.192.675.675,0,0,0,.667-.334v.286h.429Zm-1.715,0a.663.663,0,0,1,.667-.715.722.722,0,0,1,0,1.43.663.663,0,0,1-.667-.715Zm16.392-1.144a.622.622,0,0,0-.572.334V45.51h-.429v2.144h.429V46.463c0-.334.191-.572.477-.572a.6.6,0,0,1,.286.048l.143-.381a1.212,1.212,0,0,0-.334-.1Zm-1.668,1.144V45.558h-.429V45.8a.834.834,0,0,0-.667-.334,1.1,1.1,0,0,0,0,2.192.675.675,0,0,0,.667-.334v.286h.429Zm-1.715,0a.663.663,0,0,1,.667-.715.722.722,0,0,1,0,1.43A.663.663,0,0,1,32.85,46.606Zm6,0V44.7h-.429v1.1a.834.834,0,0,0-.667-.334,1.1,1.1,0,0,0,0,2.192.675.675,0,0,0,.667-.334v.286h.429Zm-1.715,0a.663.663,0,0,1,.667-.715.722.722,0,0,1,0,1.43.663.663,0,0,1-.667-.715Z" transform="translate(-8.166 -23.4)" fill="#282828"/>
  <path id="Path_75" data-name="Path 75" d="M31.9,12.6h7.672V25.132H31.9Z" transform="translate(-16.699 -6.596)" fill="#ff5f00"/>
  <path id="Path_76" data-name="Path 76" d="M22.7,16.96a7.969,7.969,0,0,1,3.05-6.29,7.984,7.984,0,1,0,0,12.58,8.043,8.043,0,0,1-3.05-6.29Z" transform="translate(-6.74 -4.714)" fill="#eb001b"/>
  <path id="Path_77" data-name="Path 77" d="M52.866,16.857A7.949,7.949,0,0,1,40,23.1a8.019,8.019,0,0,0,1.334-11.246A8.825,8.825,0,0,0,40,10.519a7.892,7.892,0,0,1,8.387-.905A8.238,8.238,0,0,1,52.866,16.857Z" transform="translate(-20.939 -4.61)" fill="#f79e1b"/>
</svg>
