<svg id="paypal" xmlns="http://www.w3.org/2000/svg" width="45.701" height="28.863" viewBox="0 0 45.701 28.863">
  <g id="Group_259" data-name="Group 259">
    <path id="Path_165" data-name="Path 165" d="M2.665,28.882A2.156,2.156,0,0,1,.5,26.717V2.665A2.156,2.156,0,0,1,2.665.5h40.89A2.156,2.156,0,0,1,45.72,2.665V26.717a2.156,2.156,0,0,1-2.165,2.165Z" transform="translate(-0.259 -0.259)" fill="#fff"/>
    <path id="Path_166" data-name="Path 166" d="M43.3.481A1.93,1.93,0,0,1,45.22,2.405V26.458A1.93,1.93,0,0,1,43.3,28.382H2.405A1.93,1.93,0,0,1,.481,26.458V2.405A1.93,1.93,0,0,1,2.405.481H43.3M43.3,0H2.405A2.382,2.382,0,0,0,0,2.405V26.458a2.382,2.382,0,0,0,2.405,2.405H43.3A2.382,2.382,0,0,0,45.7,26.458V2.405A2.382,2.382,0,0,0,43.3,0Z" fill="#fff"/>
  </g>
  <g id="Group_260" data-name="Group 260" transform="translate(4.185 9.669)">
    <path id="Path_167" data-name="Path 167" d="M15.05,20.581a3.042,3.042,0,0,0-1.828-.481H10.287c-.241,0-.337.1-.385.337L8.7,27.845c0,.1,0,.144.048.192a.25.25,0,0,0,.192.1h1.4c.241,0,.385-.1.385-.337l.337-2.02a.265.265,0,0,1,.144-.241.516.516,0,0,1,.289-.1c.1,0,.192-.048.289-.048h.577a3.318,3.318,0,0,0,2.453-.866,3.341,3.341,0,0,0,.914-2.453,1.832,1.832,0,0,0-.673-1.491Zm-1.539,2.261a.937.937,0,0,1-.481.818,2.282,2.282,0,0,1-1.106.192h-.577l.289-1.924c.048-.144.1-.192.241-.192h.337a2.076,2.076,0,0,1,1.058.192c.241.144.337.433.241.914Z" transform="translate(-8.7 -20.1)" fill="#003087"/>
    <path id="Path_168" data-name="Path 168" d="M82.79,20.1H81.443c-.144,0-.192.048-.241.192l-1.2,7.6v.048c0,.048.048.1.1.192a.25.25,0,0,0,.192.1h1.155c.241,0,.337-.1.385-.337l1.2-7.456h0c0-.241-.1-.337-.241-.337Z" transform="translate(-45.701 -20.1)" fill="#009cde"/>
    <path id="Path_169" data-name="Path 169" d="M44.687,25.889c0-.048-.048-.1-.1-.192-.048-.048-.1-.1-.144-.1h-1.4a.363.363,0,0,0-.337.192L40.79,28.631l-.818-2.742a.366.366,0,0,0-.385-.289H38.241c-.048,0-.1.048-.144.1-.048.1-.1.144-.1.192a8.278,8.278,0,0,0,.337,1.058c.241.673.481,1.443.77,2.261s.433,1.2.433,1.251a14.921,14.921,0,0,0-1.491,2.165.227.227,0,0,0,.241.241h1.4a.363.363,0,0,0,.337-.192l4.666-6.687s0,0,0-.1Z" transform="translate(-23.905 -22.954)" fill="#003087"/>
    <path id="Path_170" data-name="Path 170" d="M72.042,25.544h-1.4q-.289,0-.289.577a1.965,1.965,0,0,0-1.732-.722,2.948,2.948,0,0,0-2.213.962,3.273,3.273,0,0,0-.914,2.309,2.326,2.326,0,0,0,.625,1.732,2.214,2.214,0,0,0,1.684.625,2.815,2.815,0,0,0,1.058-.241,2.28,2.28,0,0,0,.866-.577.372.372,0,0,1-.048.144.523.523,0,0,0-.048.241c0,.192.1.289.241.289h1.251c.241,0,.385-.1.385-.337l.77-4.762c0-.1,0-.144-.048-.192-.1,0-.144-.048-.192-.048Zm-2.405,3.608a1.524,1.524,0,0,1-1.106.433,1.343,1.343,0,0,1-.866-.289.991.991,0,0,1-.337-.818,1.724,1.724,0,0,1,.433-1.155,1.566,1.566,0,0,1,1.106-.481,1.343,1.343,0,0,1,.866.289.991.991,0,0,1,.337.818,1.354,1.354,0,0,1-.433,1.2Z" transform="translate(-38.176 -22.85)" fill="#009cde"/>
    <path id="Path_171" data-name="Path 171" d="M29.042,25.544h-1.4q-.289,0-.289.577a1.965,1.965,0,0,0-1.732-.722,2.948,2.948,0,0,0-2.213.962,3.273,3.273,0,0,0-.914,2.309,2.326,2.326,0,0,0,.625,1.732,2.214,2.214,0,0,0,1.684.625,3.034,3.034,0,0,0,1.058-.241,1.957,1.957,0,0,0,.866-.577,1.487,1.487,0,0,0-.1.385c0,.192.1.289.241.289h1.251c.241,0,.385-.1.385-.337l.77-4.762c0-.1,0-.144-.048-.192-.048,0-.144-.048-.192-.048Zm-2.405,3.608a1.56,1.56,0,0,1-1.155.433,1.343,1.343,0,0,1-.866-.289,1.161,1.161,0,0,1-.337-.818,1.724,1.724,0,0,1,.433-1.155,1.566,1.566,0,0,1,1.106-.481,1.343,1.343,0,0,1,.866.289.991.991,0,0,1,.337.818,1.182,1.182,0,0,1-.385,1.2Z" transform="translate(-15.861 -22.85)" fill="#003087"/>
    <path id="Path_172" data-name="Path 172" d="M58.1,20.581a3.042,3.042,0,0,0-1.828-.481H53.387c-.241,0-.385.1-.385.337l-1.2,7.408c0,.1,0,.144.048.192a.25.25,0,0,0,.192.1h1.491a.3.3,0,0,0,.289-.241l.337-2.117a.265.265,0,0,1,.144-.241.516.516,0,0,1,.289-.1c.1,0,.192-.048.289-.048h.577a3.08,3.08,0,0,0,3.367-3.319,2.023,2.023,0,0,0-.722-1.491Zm-1.876,3.031a2.116,2.116,0,0,1-1.2.289h-.577l.289-1.924c.048-.144.1-.192.241-.192h.337a2.171,2.171,0,0,1,.625.048.983.983,0,0,1,.433.241.721.721,0,0,1,.241.577A1.194,1.194,0,0,1,56.226,23.612Z" transform="translate(-31.066 -20.1)" fill="#009cde"/>
  </g>
</svg>
