<svg xmlns="http://www.w3.org/2000/svg" width="19.216" height="15.612" viewBox="0 0 19.216 15.612">
  <path id="twitter" d="M19.216,1.849a7.869,7.869,0,0,1-2.264.619A3.956,3.956,0,0,0,18.686.289a8,8,0,0,1-2.506.958A3.944,3.944,0,0,0,9.464,4.838,11.2,11.2,0,0,1,1.338.719,3.953,3.953,0,0,0,2.559,5.988a3.974,3.974,0,0,1-1.787-.5v.05A3.943,3.943,0,0,0,3.934,9.407,4,4,0,0,1,2.9,9.545a3.925,3.925,0,0,1-.741-.072,3.944,3.944,0,0,0,3.68,2.738,7.906,7.906,0,0,1-4.9,1.683A8.51,8.51,0,0,1,0,13.84a11.146,11.146,0,0,0,6.041,1.774A11.138,11.138,0,0,0,17.257,4.4l-.013-.509A7.913,7.913,0,0,0,19.216,1.849Z" transform="translate(0 -0.003)" fill="#fff"/>
</svg>
