<svg id="visa" xmlns="http://www.w3.org/2000/svg" width="42.887" height="28.591" viewBox="0 0 42.887 28.591">
  <g id="Group_76" data-name="Group 76">
    <path id="Path_78" data-name="Path 78" d="M2.644,28.614A2.135,2.135,0,0,1,.5,26.47V2.644A2.135,2.135,0,0,1,2.644.5H40.766A2.135,2.135,0,0,1,42.91,2.644V26.47a2.135,2.135,0,0,1-2.144,2.144Z" transform="translate(-0.262 -0.262)" fill="#fff"/>
    <path id="Path_79" data-name="Path 79" d="M40.5.477A1.912,1.912,0,0,1,42.41,2.383V26.208A1.912,1.912,0,0,1,40.5,28.114H2.383A1.912,1.912,0,0,1,.477,26.208V2.383A1.912,1.912,0,0,1,2.383.477H40.5M40.5,0H2.383A2.359,2.359,0,0,0,0,2.383V26.208a2.359,2.359,0,0,0,2.383,2.383H40.5a2.359,2.359,0,0,0,2.383-2.383V2.383A2.359,2.359,0,0,0,40.5,0Z" fill="#fff"/>
  </g>
  <g id="Group_77" data-name="Group 77" transform="translate(6.099 9.483)">
    <path id="Path_80" data-name="Path 80" d="M37.183,29.54H34.8l1.477-9.34h2.43Z" transform="translate(-24.317 -20.057)" fill="#0066b2"/>
    <path id="Path_81" data-name="Path 81" d="M24.009,20.1l-2.335,6.385L21.388,25.1h0l-.81-2.383-.619-.572-.572-.524-.81-.524-.477.143,2.1,8.1h2.526L26.582,20H24.009Z" transform="translate(-15.574 -19.952)" fill="#0066b2"/>
    <path id="Path_82" data-name="Path 82" d="M63.433,29.534h2.24l-1.954-9.34H61.765a1.129,1.129,0,0,0-1.144.715L57,29.534h2.526l.524-1.382h3.1Zm-2.668-3.288,1.287-3.479.715,3.479Z" transform="translate(-35.938 -20.051)" fill="#0066b2"/>
    <path id="Path_83" data-name="Path 83" d="M49.91,22.283l.334-2a6.839,6.839,0,0,0-2.192-.381c-1.191,0-4.1.524-4.1,3.1,0,2.43,3.336,2.43,3.336,3.717s-3,1.048-4,.238L43,29a6.8,6.8,0,0,0,2.764.524c1.668,0,4.146-.858,4.146-3.193,0-2.43-3.383-2.668-3.383-3.717s2.335-.905,3.383-.334" transform="translate(-28.609 -19.9)" fill="#0066b2"/>
    <path id="Path_84" data-name="Path 84" d="M18.614,25.247l-.81-4.193A1.087,1.087,0,0,0,16.66,20.2H12.848l-.048.143a9.605,9.605,0,0,1,3.622,1.811,7.115,7.115,0,0,1,2.192,3.1" transform="translate(-12.8 -20.053)" fill="#f9a533"/>
  </g>
</svg>
